<?xml version="1.0" standalone="yes"?>
<svg xmlns="http://www.w3.org/2000/svg" width="750" height="750">
<path style="fill:#020202; stroke:none;" d="M0 0L0 750L750 750L750 0L0 0M355 22.2855C362.861 21.358 371.091 22 379 22C406.167 22 433.631 25.5342 460 32.1265C493.599 40.5262 526.253 53.6015 556 71.449C669.965 139.826 736.979 268.584 727.911 401C719.988 516.692 651.647 624.672 551 682.127C508.416 706.437 461.526 720.735 413 726.714C372.725 731.676 329.281 728.148 290 718.373C247.965 707.913 207.373 689.604 172 664.576C141.917 643.29 115.023 617.502 92.8951 588C12.9281 481.387 -0.348042 335.236 59.2701 216C78.5524 177.435 106.069 142.049 138 113.17C179.055 76.0378 229.395 48.0444 283 33.8843C306.848 27.5847 330.657 25.1577 355 22.2855M367 29.4244C354.824 31.0231 342.267 30.9243 330 32.1705C315.045 33.6898 299.485 37.187 285 41.152C204.121 63.2912 132.176 114.853 86.0787 185C20.8612 284.243 11.845 413.261 61.3086 521C80.6813 563.197 109.585 601.748 144 632.83C183.22 668.252 231.246 694.089 282 708.573C327.742 721.626 377.035 724.044 424 717.718C523.674 704.291 615.478 644.29 668.575 559C705.622 499.49 724.026 428.996 720.961 359C714.577 213.205 610.765 81.704 470 42.5756C442.908 35.0449 415.131 30.3307 387 29.9962C380.229 29.9156 373.81 28.5302 367 29.4244M359.318 46.6219C362.72 45.0991 366.709 49.5756 362.682 51.3781C359.28 52.9008 355.291 48.4246 359.318 46.6219M377.307 46.6188C381.019 44.9643 384.08 49.9153 379.856 51.2886C376.67 52.3243 373.737 48.2101 377.307 46.6188M395.133 46.8311C398.534 46.0464 400.893 50.8067 396.867 51.6242C393.261 52.3563 391.149 47.7505 395.133 46.8311M342.163 47.6613C345.57 46.4615 348.939 50.8943 344.837 52.3387C341.43 53.5386 338.061 49.1057 342.163 47.6613M412.163 48.6613C415.57 47.4615 418.939 51.8943 414.837 53.3387C411.43 54.5386 408.061 50.1057 412.163 48.6613M326.87 49.7778C330.777 50.1075 329.421 54.7023 326.001 54.7037C321.356 54.7055 322.814 49.4354 326.87 49.7778M429.318 50.7917C432.056 49.9315 436.394 53.71 432.667 55.382C429.198 56.9382 425.312 52.05 429.318 50.7917M309.867 52.9468C314.323 53.8447 311.078 59.3226 307.318 58.0695C303.566 56.819 306.83 52.3351 309.867 52.9468M446.333 54.6582C449.309 53.4979 453.356 57.9451 449.667 59.2886C446.818 60.3262 442.621 56.1053 446.333 54.6582M292.87 56.777C297.416 57.1415 294.648 62.3591 291.13 62.1721C286.652 61.9342 289.21 56.4835 292.87 56.777M463.318 58.7084C466.153 57.7396 470.387 61.7748 466.667 63.3564C463.343 64.77 459.263 60.0939 463.318 58.7084M275.001 61.5818C278.718 61.0521 279.529 65.8755 275.87 66.6235C271.492 67.5186 270.619 62.2061 275.001 61.5818M480.318 63.8311C483.548 63.0116 486.958 68.1944 482.852 69.0532C479.737 69.7048 476.563 64.7837 480.318 63.8311M375 66L375 75L373 75C372.936 71.922 372.562 69.0251 372 66L375 66M263 71C260.25 72.3293 258.05 72.8465 255 73C255.454 67.3065 260.057 65.679 263 71M343 67C344.9 70.1713 344.969 73.3536 345 77C341.485 74.721 341.449 70.6981 343 67M406 67L405 77L403 77L403 67L406 67M497.133 69.9468C500.17 69.3351 503.434 73.819 499.682 75.0695C495.922 76.3226 492.677 70.8447 497.133 69.9468M436 71C436.533 74.987 436.334 79.7321 432 81L434 71L436 71M314 72C314.45 75.5773 314.965 78.4897 314 82C311.915 78.9999 311.465 75.5989 311 72L314 72M245 73C245.187 73.8305 245.792 75.0865 245.522 76.0517C243.817 82.128 235.453 77.5015 241.903 73.8989C242.78 73.4092 244.09 73.2407 245 73M513.148 76.9977C516.151 76.4548 519.471 81.1862 515.682 82.2523C512.346 83.191 509.082 77.7328 513.148 76.9977M466 79C465.685 82.8149 465.358 85.8835 462 88C462.276 84.8387 463.042 82.021 464 79L466 79M284 80C284.842 82.994 285.584 85.9174 286 89C282.596 86.9252 281.877 83.777 281 80L284 80M226.949 81.5818C231.561 80.8953 230.043 87.1292 226.129 87.2485C222.006 87.3741 223.828 82.0463 226.949 81.5818M528.318 84.8279C531.582 84.0267 534.957 89.2702 530.852 90.1188C527.782 90.7534 524.566 85.7488 528.318 84.8279M211.896 89.7515C216.191 89.6174 214.003 95.794 210.225 95.4537C206.175 95.0891 208.927 89.8442 211.896 89.7515M495 89C495.084 92.7821 493.77 95.6731 492 99C489.843 95.5922 491.633 92.5553 493 89L495 89M255 90C256.173 93.4788 257.453 96.3331 257 100C254.066 97.0714 252.76 94.1492 253 90L255 90M363 90.2855C373.877 89.0021 385.156 90.1638 396 90.9105C420.339 92.5866 443.852 97.6171 467 105.333C499.82 116.273 530.411 133.285 557 155.414C578.498 173.305 598.128 194.443 613.308 218C627.349 239.789 639.254 263.181 646.974 288C677.461 386.003 653.691 492.891 584.83 569C563.73 592.321 537.743 612.044 510 626.78C481.647 641.841 449.178 654.227 417 657.827C350.686 665.247 283.288 654.24 226 618.575C184.548 592.769 149.672 556.68 125.862 514C76.4947 425.508 77.9912 310.918 132.695 225C153.719 191.981 180.159 164.182 212 141.427C244.79 117.994 283.473 102.302 323 94.804C336.267 92.2874 349.67 91.8584 363 90.2855M357 93.4244C342.587 95.3168 328.268 96.2731 314 99.4244C272.44 108.604 233.511 127.304 200 153.424C172.361 174.968 149.579 202.034 131.6 232C59.0467 352.925 92.3573 516.753 205 601.105C266.126 646.879 343.753 665.383 419 654.714C457.738 649.222 496.49 633.9 529 612.333C608.805 559.391 660.353 467.645 657.985 371C655.931 287.135 617.158 205.964 551 153.665C519.957 129.125 484.062 112.157 446 101.849C418.257 94.335 385.734 89.6516 357 93.4244M543.333 93.7114C546.37 92.5984 550.37 97.1094 546.667 98.7477C543.641 100.087 539.711 95.0386 543.333 93.7114M199 98C200.007 102.53 198.259 104.503 194 106C192.993 101.47 194.741 99.4966 199 98M558.307 102.831C561.142 102.094 565.027 106.923 561.527 108.289C558.125 109.616 554.369 103.855 558.307 102.831M523 103C522.33 106.48 520.93 109.037 519 112C517.096 108.673 519.141 106.098 521 103L523 103M226 104C228.66 106.633 229.964 109.414 231 113C227.436 111.147 224.867 108.146 226 104M182.891 109.117C186.973 109.476 184.635 115.375 181.144 114.964C177.13 114.491 179.602 108.828 182.891 109.117M572.333 113.661C575.486 112.392 579.336 117.084 575.667 118.745C572.651 120.11 568.721 115.114 572.333 113.661M168.896 119.752C173.191 119.617 171.003 125.794 167.225 125.454C163.175 125.089 165.927 119.844 168.896 119.752M550 119C548.506 122.846 546.724 125.18 543 127C544.293 122.965 545.849 120.278 550 119M201 120C202.639 123.001 204.217 125.663 205 129C201.578 127.128 199.888 124.376 198 121C199.479 120.014 199.203 120 201 120M587.09 124.176C590.256 124.633 591.868 130.696 587.91 130.079C584.864 129.604 583.035 123.59 587.09 124.176M155.856 131.207C159.719 131.201 157.591 137.409 154.123 136.963C150.304 136.471 153 131.211 155.856 131.207M599.303 135.921C602.339 135.406 605.349 141.249 601.697 141.824C598.59 142.313 595.647 136.543 599.303 135.921M575 138C572.96 141.077 570.87 143.68 568 146C567.908 142.207 569.784 140.046 572 137C573.797 137 573.521 137.014 575 138M176 139C178.412 141.597 180.053 143.587 181 147C177.571 145.361 174.135 142.953 176 139M143.682 143.461C146.96 144.573 144.108 149.555 141.303 149.079C137.779 148.48 140.439 142.362 143.682 143.461M612.133 148.207C615.051 148.207 617.686 153.482 613.852 154.079C610.198 154.647 608.147 148.207 612.133 148.207M130.91 155.921C134.919 155.291 133.217 161.587 130.09 162.079C126.081 162.709 127.783 156.413 130.91 155.921M596 158C596.066 162.281 593.559 163.918 590 166L589 165C591.04 162.12 593.12 160.04 596 158M160 167C155.598 167.067 153.48 164.479 151 161C155.402 160.933 157.52 163.521 160 167M623.318 161.752C626.606 160.703 629.197 166.484 625.697 167.079C623.011 167.535 620.028 162.8 623.318 161.752M438 185L435 184C436.355 179.912 439.197 176.895 440.915 173C441.789 171.019 441.777 168.31 443.175 166.604C445.704 163.519 450.361 166.146 449.623 169.876C449.104 172.506 446.215 173.542 444.513 175.299C441.826 178.072 440.007 181.732 438 185M116 176C116.064 175.155 115.984 173.771 116.318 172.898C118.741 166.558 125.506 171.885 119.101 175.396C118.206 175.886 116.933 175.854 116 176M634.303 174.921C637.435 174.385 640.34 180.455 636.697 181.079C633.565 181.615 630.66 175.545 634.303 174.921M618 182C615.711 184.986 613.187 187.003 610 189C609.014 187.521 609 187.797 609 186C612.046 183.784 614.207 181.908 618 182M366 270C368.195 266.779 369.124 262.348 371.702 259.495C375.248 255.572 381.06 253.663 384.961 249.907C392.611 242.54 399.631 231.59 404.175 222C409.58 210.593 402.168 197.45 412.329 187.329C426.672 173.043 448.822 190.132 441.517 208C435.595 222.485 419.161 219.105 409.174 228.329C397.392 239.21 392.707 256.457 385 270C396.895 270.008 404.168 276.141 413 283.59C426.52 294.994 440.224 310.687 458 315.239C469.961 318.302 487.856 307.796 479.91 294.004C473.216 282.385 458.199 286.863 456 299C452.133 290.953 454.438 279.32 464 276.573C474.376 273.591 487.319 279.019 491.633 289C498.664 305.268 486.622 327.672 469 329.816C443.435 332.926 416.941 321.813 396 308C399.541 323.304 406.161 337.925 410.576 353C412.48 359.505 415.943 366.235 414 373L412 373C404.384 354.707 394.964 337.017 386.691 319C382.784 310.49 376.495 301.537 376 292C369.504 301.177 365.618 311.922 360.742 322C352.596 338.834 344.1 355.694 337 373C330.979 369.596 335.352 362.223 336.975 357C341.762 341.593 347.007 326.344 352 311C329.032 320.562 308.132 333.559 282 329.699C264.951 327.181 252.343 305.006 259.92 289C265.104 278.048 283.884 269.922 293.581 280.34C297.92 285.003 297 292.146 297 298C293.715 294.412 291.893 289.771 286.999 287.894C277.117 284.102 268.621 293.297 270.225 303C272.403 316.17 289.091 317.444 299 313.535C314.771 307.314 327.269 293.27 340 282.59C346.956 276.753 353.54 270.433 363 270C360.009 259.618 353.663 249.122 347.95 240C345.038 235.351 342.197 230.249 337.829 226.789C327.801 218.846 311.458 221.845 306.804 207C301.822 191.11 319.313 174.241 333.996 185.419C339.971 189.967 342.968 196.571 342.971 204C342.973 209.237 341.568 213.821 343.224 219C346.159 228.183 353.854 238.807 360.184 246C362.828 249.004 368.347 252.281 369.583 256.17C370.765 259.893 366.874 266.225 366 270M108.91 183.921C112.462 183.366 111.596 188.486 108.91 189.248C104.859 190.399 105.398 184.471 108.91 183.921M133 183C135.666 185.185 137.96 187.224 140 190C136.366 189.849 130.435 187.225 133 183M320.001 187.653C302.566 193.118 313.318 221.134 330 216.427C347.316 211.54 336.054 182.62 320.001 187.653M421.001 187.653C405.332 192.563 407.063 221.827 426 216.199C433.035 214.108 438.137 207.427 437.866 200C437.554 191.469 429.343 185.038 421.001 187.653M645.105 189.207C647.812 189.207 650.055 194.49 646.721 195.079C643.322 195.679 641.343 189.207 645.105 189.207M99.0417 197.921C102.604 197.32 102.07 203.576 98.9151 204.079C94.8857 204.721 95.7544 198.476 99.0417 197.921M654.278 203.921C657.616 203.336 659.708 209.447 655.945 210.079C652.761 210.613 650.951 204.505 654.278 203.921M636 207C633.443 210.084 630.816 211.781 627 213C628.4 208.76 631.64 206.994 636 207M122 215C118.349 214.142 115.712 212.585 113 210C117.273 209.563 119.943 211.254 122 215M92 212C92.2449 212.927 92.8189 214.098 92.6914 215.141C91.8628 221.916 84.5213 217.833 89.2747 213.185C89.9694 212.506 91.1816 212.313 92 212M663.055 219.037C666.187 218.614 668.073 224.497 664.722 225.079C661.416 225.652 659.272 219.549 663.055 219.037M80 236C79.73 235.009 79.2062 233.941 79.2693 232.859C79.6927 225.601 87.5936 230.054 82.7253 234.815C82.0304 235.494 80.8187 235.687 80 236M651 233C648.955 236.603 645.907 237.871 642 239C644.014 235.126 646.766 233.767 651 233M670.289 234.752C673.557 233.69 676.024 239.403 672.711 240.654C669.621 241.821 666.939 235.84 670.289 234.752M107 242C103.48 240.533 100.123 239.241 98 236C102.458 235.969 105.637 237.643 107 242M74.1698 244.752C78.1037 243.587 77.886 249.603 74.8302 250.654C71.1558 251.919 70.8938 245.721 74.1698 244.752M677.289 250.752C680.557 249.69 683.024 255.403 679.711 256.654C676.621 257.821 673.939 251.84 677.289 250.752M68.0802 260.921C71.5632 260.299 71.072 266.549 68.0008 267.079C64.4418 267.693 65.1102 261.452 68.0802 260.921M664 262C661.388 264.535 658.38 265.686 655 267L654 264C657.479 262.827 660.333 261.547 664 262M95 269C91.1392 268.332 88.0769 267.432 86 264C89.9863 264.601 92.9274 265.416 95 269M684.029 267.037C687.529 266.554 688.82 273.366 684.981 273.364C681.739 273.363 680.49 267.526 684.029 267.037M371 270C372.328 270.273 372.577 270.216 374 270L375 274L377 274C377.699 269.427 374.959 268.946 371 270M62.2199 277.752C66.1864 276.536 66.2264 283.493 62.784 284.079C59.0736 284.71 59.1764 278.684 62.2199 277.752M689.21 283.921C692.346 283.337 693.837 289.208 690.787 290.248C687.322 291.43 685.898 284.538 689.21 283.921M673 290C671.568 294.087 667.988 294.459 664 295C664.838 291.068 669.393 290.743 673 290M58.7901 294.461C61.8639 295.563 60.6681 301.619 57.26 300.94C53.8167 300.253 55.4775 293.274 58.7901 294.461M86 295C86 296.797 85.9857 296.521 85 298C82.006 297.158 79.0826 296.416 76 296C76 294.203 76.0144 294.478 77 293L86 295M377 295C387.079 320.979 401.423 345.219 412 371C413.277 364.919 408.268 356.781 406.333 351C403.301 341.936 399.896 333.003 396.692 324C392.348 311.794 389.786 300.927 377 295M369 299C365.658 301.254 361.371 303.312 358.843 306.518C356.779 309.135 355.973 312.924 354.808 316C352.177 322.945 349.806 330.005 347.308 337C343.426 347.87 338.605 358.739 336 370C339.342 365.952 340.922 360.685 343.248 356C349.148 344.113 354.328 331.876 360.247 320C363.133 314.21 369.069 305.45 369 299M693.21 300.752C696.692 299.577 698.107 306.476 694.74 307.079C691.462 307.666 690.083 301.806 693.21 300.752M57 311C56.9889 311.931 57.0703 313.155 56.9414 314.117C55.9332 321.632 48.361 315.263 54.0687 311.604C54.8526 311.102 56.1949 311.131 57 311M696.379 317.752C699.902 316.553 701.091 323.466 697.791 324.079C694.585 324.674 693.37 318.775 696.379 317.752M680 320C678.769 324.209 674.898 323.952 671 324C673.159 320.941 676.496 320.867 680 320M79 327C75.2657 326.937 70.8863 327.157 70 323C73.6459 323.69 76.9083 323.761 79 327M51.1698 328.921C54.84 328.321 55.2934 334.512 51.8302 335.079C48.16 335.679 47.7066 329.488 51.1698 328.921M699.92 335.346C703.192 335.412 703.379 341.795 699.999 341.793C696.664 341.792 696.548 335.277 699.92 335.346M49.9992 346.207C53.7597 346.207 52.9301 353.459 49.2091 352.824C46.0954 352.292 46.9661 346.207 49.9992 346.207M684 351L684 354L674 354C676.455 350.775 680.174 351.032 684 351M700.376 352.752C703.916 351.561 705.095 358.48 701.741 359.079C698.389 359.677 697.291 353.789 700.376 352.752M76 357L66 357L66 354C69.9871 354.003 73.6677 353.402 76 357M48.2091 363.752C51.7672 362.56 52.8011 369.183 49.6242 370.248C46.0645 371.443 45.0343 364.815 48.2091 363.752M701.259 369.921C705.807 369.111 706.292 379.344 702 380.079C698.025 380.759 697.799 370.538 701.259 369.921M685 376L685 378L675 378L675 376L685 376M48.2099 381.752C51.3865 380.687 52.791 386.253 49.7369 387.248C46.4367 388.324 45.1402 382.78 48.2099 381.752M76 385L76 387L66 387L66 385L76 385M701.001 390.921C704.251 390.361 704.724 396.546 701.741 397.079C698.187 397.714 697.515 391.523 701.001 390.921M49.2091 398.752C52.8991 397.516 53.6794 404.445 49.9992 405.079C46.6557 405.654 46.4543 399.674 49.2091 398.752M683 409C679.975 408.438 677.078 408.064 674 408L674 405C677.63 405.183 682.145 405.01 683 409M700 408.207C703.305 408.207 703.465 414.364 700 414.364C696.535 414.364 696.695 408.207 700 408.207M51.2091 415.921C54.368 415.336 55.836 421.232 52.7369 422.248C49.1056 423.44 47.874 416.539 51.2091 415.921M78 415C75.5448 418.225 71.8261 417.968 68 418C70.4161 414.58 74.0839 415.011 78 415M137 460L137 420C144.828 420 154.177 419.131 160.96 423.854C172.681 432.016 171.341 450.838 158.999 457.583C152.441 461.166 144.201 460 137 460M191 420L191 460L181 460L181 420L191 420M232 423C231.282 425.388 230.537 428.406 227.786 429.212C225.5 429.882 217.207 426.375 217.207 431.135C217.207 433.863 221.044 435.348 223.001 436.374C226.77 438.351 230.839 440.779 232.397 445.001C235.227 452.673 229.159 459.146 222 460.532C214.977 461.891 208.975 459.474 203 456L207 448C209.076 448.754 210.968 449.756 213.005 450.601C215.421 451.604 224.394 452.36 221.248 447.169C217.918 441.674 209.654 441.973 207.514 434.985C202.761 419.466 222.64 418.094 232 423M272 428L262 428L262 460L253 460L253 428L243 428L243 420L262 420C264.475 420.001 268.303 419.378 270.397 421.028C272.373 422.585 271.974 425.788 272 428M303 443L316 460C312.605 460 308.299 460.673 305.09 459.397C300.264 457.477 296.253 450.414 294 446C292.653 450.558 293 455.27 293 460L283 460L283 420C289.948 420 299.869 418.475 305.891 422.738C313.673 428.247 311.029 439.738 303 443M336 460L326 460L326 420C328.626 420.002 333.112 419.254 334.972 421.603C336.912 424.053 336 429.089 336 432L336 460M370 439C378.637 442.007 380.756 453.858 371.956 458.543C365.785 461.829 355.806 460 349 460L349 420C357.956 420 378.776 418.561 373.421 433.975C372.713 436.013 371.363 437.388 370 439M413 420L413 428L400 428L400 436L413 436L413 444L400 444L400 452L413 452L413 460L390 460L390 420L413 420M436 420L436 452L450 452L450 460L427 460L427 420L436 420M472 420L472 452L485 452L485 460L462 460L462 420L472 420M521 420L521 428L508 428L508 436L521 436L521 444L508 444L508 452L521 452L521 460L498 460L498 420L521 420M568 420C563.862 431.302 555.294 441.754 549 452L567 452L567 460L533 460C537.892 448.647 546.016 438.788 552 428L535 428C535.026 425.788 534.627 422.585 536.603 421.028C538.884 419.231 543.3 420 546 420L568 420M601 420C604.72 433.602 613.599 446.057 616 460L606 460C604.348 453.151 597.238 448.696 590.278 453.028C587.755 454.598 587.48 458.126 584.722 459.397C582.223 460.548 578.681 460 576 460C579.21 450.513 583.226 441.212 587.15 432C588.543 428.729 589.618 423.194 592.649 421.028C594.862 419.446 598.438 420.002 601 420M697.17 425.752C700.954 424.549 701.211 431.493 697.783 432.079C694.095 432.709 694.167 426.705 697.17 425.752M293 428L293 438C302.046 436.989 302.451 428.309 293 428M359 428L359 436C365.58 434.628 366.224 428.563 359 428M147 429L147 452C162.245 450.428 162.893 429.472 147 429M52 440C51.8756 439.191 51.4995 437.766 51.5671 436.86C52.158 428.947 61.1062 437.019 55.0085 439.682C54.224 440.025 52.7258 439.943 52 440M596 433L592 444L600 444C599.332 440.116 598.11 436.337 596 433M679 437C675.443 439.59 671.333 438.702 669 435C672.472 435.276 675.702 435.883 679 437M694.08 442.921C697.384 442.332 697.486 448.362 694.741 449.248C690.845 450.507 690.535 443.553 694.08 442.921M83 444C81.8188 448.038 77.7777 448.241 74 449C75.1812 444.962 79.2223 444.759 83 444M359 444L359 453C360.919 452.954 363.062 453.089 364.857 452.258C367.822 450.883 368.57 447.133 365.683 445.179C363.768 443.883 361.193 444.053 359 444M57.2631 450.752C60.8943 449.56 62.126 456.461 58.7909 457.079C55.6321 457.664 54.164 451.768 57.2631 450.752M690 459.921C693.565 459.309 693.109 465.545 690 466.079C686.435 466.691 686.891 460.455 690 459.921M671 469C667.447 468.476 664.282 467.453 661 466C664.716 463.645 668.806 465.401 671 469M62.9198 467.176C66.0069 467.684 66.5172 473.723 62.9992 473.654C59.5376 473.587 59.2972 466.58 62.9198 467.176M92 473C90.8242 477.023 86.8305 477.498 83 478C85.0748 474.596 88.2229 473.877 92 473M257 513C254.183 513 250.084 513.692 247.648 511.972C245.189 510.236 244.852 506.861 241.867 505.603C238.226 504.07 232.889 505 229 505L227 513L217 513C219.588 502.08 224.981 491.391 229.201 481C230.959 476.669 233.201 471.809 238.868 473.323C242.79 474.37 243.883 479.708 245.2 483C249.145 492.86 254.084 502.801 257 513M276 473L276 505L290 505L290 513L267 513L267 473L276 473M323 495C325.495 487.626 328.947 480.505 331 473L341 473L345 513L335 513L334 490C330.765 497.298 327.801 505.216 326 513C316.082 512.675 315.54 499.569 312 492C310.428 498.604 310.056 506.206 310 513L301 513C301.001 499.608 303.889 486.369 304 473C306.805 473 310.933 472.3 313.351 474.028C318.545 477.739 320.031 489.425 323 495M393 513C385.888 512.999 382.181 512.818 381 505C377.084 505 371.786 504.088 368.108 505.603C365.039 506.868 364.751 510.18 362.302 511.972C359.925 513.712 355.774 513 353 513C355.799 502.765 360.659 492.851 364.6 483C366.114 479.216 367.26 473.747 372.04 473.167C377.777 472.471 379.263 477.665 381 482C385.064 492.145 390.476 502.35 393 513M427 497C429.199 489.562 428 480.729 428 473L437 473L437 513C434.192 512.998 430.738 513.449 428.21 511.972C425.664 510.485 424.212 507.384 422.657 505C419.518 500.19 416.037 495.382 414 490C411.885 497.155 413 505.567 413 513L403 513L403 473C405.691 473 409.153 472.479 411.671 473.603C414.264 474.762 415.605 477.736 417.053 480.001C420.59 485.533 424.73 490.799 427 497M485 473C480.108 484.338 471.8 494.105 466 505L484 505L484 513L450 513C454.108 501.779 462.417 490.948 469 481L452 481L452 473L485 473M533 513C525.888 512.999 522.181 512.818 521 505C517.084 505 511.786 504.088 508.108 505.603C505.039 506.868 504.751 510.18 502.302 511.972C499.925 513.712 495.774 513 493 513C495.799 502.765 500.659 492.851 504.6 483C506.114 479.216 507.26 473.747 512.04 473.167C517.777 472.471 519.263 477.665 521 482C525.064 492.145 530.476 502.35 533 513M683 484C682.73 483.009 682.206 481.941 682.269 480.859C682.693 473.601 690.594 478.055 685.725 482.815C685.031 483.494 683.818 483.687 683 484M66 483C66.9367 483.278 68.1214 483.34 68.9282 484.029C74.6458 488.915 66.4218 493.425 65.5177 486.141C65.3973 485.171 65.8386 483.877 66 483M236 487L233 497L241 497C239.776 493.247 238.769 489.863 236 487M372 487L369 497L377 497C376.106 493.229 375.199 489.353 372 487M512 487L509 497L517 497C516.106 493.23 515.199 489.353 512 487M660 498C655.961 497.039 652.424 496.158 651 492C654.752 493.005 658.846 494.039 660 498M678.985 493.037C682.867 492.514 681.676 499.366 678.134 499.364C674.458 499.362 676.12 493.423 678.985 493.037M74.1042 500.207C77.425 500.207 78.8535 506.364 74.9846 506.364C71.7203 506.364 70.4926 500.207 74.1042 500.207M104 502C101.071 504.934 98.1492 506.24 94 506C96.9382 503.034 99.8167 501.51 104 502M671.986 509.037C675.899 508.512 674.89 515.366 671.184 515.364C667.467 515.362 669.084 509.427 671.986 509.037M85 523C83.7762 522.805 82.2967 522.854 81.2739 521.973C76.6176 517.963 82.9645 513.165 84.7716 519.884C85.0213 520.813 84.9501 522.097 85 523M647 525C642.876 525.028 640.053 523.616 638 520C641.904 520.707 644.41 521.988 647 525M664.08 524.921C667.563 524.299 667.072 530.549 664.001 531.079C660.442 531.693 661.11 525.452 664.08 524.921M118 529C115.301 531.525 112.54 532.958 109 534C110.434 529.773 113.717 528.294 118 529M89.2778 531.921C92.5842 531.348 94.7278 537.451 90.9452 537.963C87.8134 538.386 85.9267 532.503 89.2778 531.921M655.906 540.207C659.642 540.207 658.244 546.364 654.96 546.364C651.133 546.364 652.609 540.207 655.906 540.207M623 545L631 550C627.611 551.928 622.013 549.313 623 545M98.2785 546.921C101.044 546.433 103.745 551.467 100.657 552.654C97.4301 553.896 94.7894 547.538 98.2785 546.921M134 553C132.163 556.617 129.713 558.423 126 560C127.278 555.849 129.965 554.293 134 553M646.042 554.921C649.604 554.32 649.07 560.576 645.915 561.079C641.886 561.721 642.754 555.476 646.042 554.921M188 557C186.494 557.683 185.685 557.826 184 558L184 568L182 568C181.997 564.013 182.598 560.332 179 558C181.89 556.787 184.874 557.002 188 557M196.147 557.619C202.442 555.088 206.973 564.575 200.772 567.242C194.317 570.018 189.859 560.147 196.147 557.619M210 568L210 557C220.415 557.339 220.313 567.434 210 568M228.147 557.619C234.442 555.088 238.973 564.575 232.772 567.242C226.317 570.018 221.859 560.147 228.147 557.619M252 563L252 568C250.56 564.568 251 560.7 251 557C256.534 557.431 258.307 561.947 252 563M269 557C270.035 560.783 271.583 564.346 273 568C268.241 565.215 267.708 565.052 263 568L267 557L269 557M285 568L280 563L280 568C278.56 564.568 279 560.7 279 557C286.118 557.555 283.807 562.531 285 568M297 557L301 568C296.292 565.052 295.759 565.215 291 568C292.566 563.964 293.908 560.086 297 557M323 557C321.231 557.779 319.964 557.912 318 558L318 562L322 562C320.494 562.683 319.685 562.826 318 563L318 567L323 567C320.668 567.984 318.543 567.981 316 568L316 557L323 557M331 557L331 567L337 567C334.668 567.985 332.543 567.981 330 568C330 564.3 329.56 560.432 331 557M361 557C359.401 558.101 356.847 558.799 355.657 560.386C352.62 564.438 358.098 565.953 361 566C355.923 571.772 348.018 560.952 356.034 557.603C357.596 556.951 359.352 557.054 361 557M369 557C369.01 560.455 369.198 563.632 370 567C373.492 564.091 373.948 561.435 374 557C375.036 559.469 375.671 563.112 374.397 565.681C373.079 568.338 369.544 567.941 368.028 565.681C366.459 563.343 367.002 559.668 367 557L369 557M384 557L384 568L382 568L382 557L384 557M390 568L390 557C399.711 557.536 399.711 567.464 390 568M410 557C411.5 560.658 413.083 564.141 414 568C411.66 566.183 409.854 564.806 407 564L406 568C404.881 563.965 407.206 559.88 410 557M420 568L420 557C430.393 557.338 430.393 567.662 420 568M439.108 557.453C445.976 555.659 448.589 566.14 441.942 567.508C435.589 568.815 432.605 559.152 439.108 557.453M463 563L463 568L461 568L461 557C466 557.382 469.287 561.072 463 563M480 557C478.231 557.779 476.964 557.912 475 558L475 562L480 562C478.231 562.779 476.964 562.912 475 563L475 567L481 567C478.387 568.098 475.836 567.993 473 568L473 557L480 557M493 568L488 563L488 568C486.56 564.568 487 560.7 487 557C494.118 557.555 491.807 562.531 493 568M505 559L501 559L501 561C507.369 563.343 505.503 568.732 499 567C500.659 566.594 501.242 566.691 503 567L504 563C497.504 561.014 501.477 554.98 505 559M516.058 557.623C522.484 555.318 526.431 564.971 519.891 567.377C513.424 569.757 509.298 560.047 516.058 557.623M531 557L539 565L539 557C540.44 560.432 540 564.3 540 568C537.048 565.924 534.564 563.545 532 561L532 568L530 568C530 564.3 529.56 560.432 531 557M553 557C554.035 560.783 555.583 564.346 557 568C552.241 565.215 551.708 565.052 547 568L551 557L553 557M564 557L564 567L570 567C567.668 567.985 565.543 567.981 563 568C563 564.3 562.56 560.432 564 557M197.225 558.89C192.93 560.114 194.523 567.155 198.985 566.168C204.053 565.048 202.049 557.516 197.225 558.89M212 558L212 566C217.97 564.963 216.98 559.907 212 558M229.225 558.89C224.93 560.114 226.523 567.155 230.985 566.168C236.053 565.048 234.049 557.516 229.225 558.89M252 558C252.578 560.697 253.261 560.789 256 561C254.774 558.965 254.297 558.674 252 558M280 558C280.578 560.698 281.261 560.789 284 561C282.774 558.965 282.297 558.674 280 558M391 558L391 566C397.65 564.939 397.339 559.353 391 558M422 558L422 567C427.691 564.907 427.691 560.093 422 558M439.137 559.137C434.489 561.406 438.321 568.235 442.563 565.762C446.455 563.494 443.333 557.088 439.137 559.137M463 558L463 562C464.797 562 464.522 561.986 466 561L466 559L465 558L463 558M488 558C488.578 560.698 489.261 560.789 492 561C490.774 558.965 490.297 558.674 488 558M516.314 559.086C512.338 561.346 515.463 567.975 519.686 565.712C523.708 563.557 520.45 556.736 516.314 559.086M108.105 561.207C110.811 561.207 113.056 566.49 109.721 567.079C106.322 567.679 104.343 561.207 108.105 561.207M409.333 560.667C409.278 560.722 409.222 561.778 409.667 561.333C409.722 561.278 409.778 560.222 409.333 560.667M267.667 561.333C267.222 561.778 268.278 561.722 268.333 561.667C268.778 561.222 267.722 561.278 267.667 561.333M295.667 561.333C295.222 561.778 296.278 561.722 296.333 561.667C296.778 561.222 295.722 561.278 295.667 561.333M551.667 561.333C551.222 561.778 552.278 561.722 552.333 561.667C552.778 561.222 551.722 561.278 551.667 561.333M636.772 569.176C640.35 569.773 637.753 576.378 634.292 575.248C630.919 574.147 633.89 568.695 636.772 569.176M612 576C607.961 575.04 605.532 573.269 603 570C607.335 569.899 609.982 572.235 612 576M117 574C117.916 574.329 119.128 574.519 119.931 575.185C125.798 580.053 117.508 584.331 116.389 577.141C116.223 576.074 116.765 574.971 117 574M154 577C151.711 579.986 149.187 582.003 146 584C145.014 582.521 145 582.797 145 581C148.101 578.922 150.234 576.931 154 577M624.961 582.921C628.587 582.328 627.858 588.386 624.834 588.94C620.858 589.668 621.606 583.47 624.961 582.921M129.314 588.921C132.332 588.399 135.342 594.238 131.721 594.824C128.724 595.309 125.808 589.528 129.314 588.921M584 591C586.88 593.04 588.96 595.12 591 598C586.95 598.061 583.112 595.422 584 591M613.867 596.207C617.853 596.207 615.802 602.647 612.148 602.079C608.314 601.482 610.949 596.207 613.867 596.207M174 597L175 598C173.079 601.318 171.086 603.723 168 606C167.933 601.598 170.521 599.48 174 597M141.318 601.752C144.606 600.703 147.197 606.484 143.697 607.079C141.011 607.535 138.028 602.8 141.318 601.752M600.911 608.921C604.462 608.365 603.596 613.486 600.911 614.248C596.859 615.399 597.398 609.471 600.911 608.921M563 611C564.688 613.672 566.176 615.95 567 619C563.276 617.18 561.494 614.846 560 611L563 611M154.303 613.921C156.989 613.465 159.972 618.2 156.682 619.248C153.394 620.297 150.803 614.516 154.303 613.921M197 616C197.148 620.147 195.158 622.418 192 625C192.096 620.913 193.889 618.58 197 616M587.946 620.662C592.136 619.89 591.031 625.222 587.946 626.11C583.6 627.361 584.093 621.372 587.946 620.662M168.09 625.176C171.256 625.633 172.868 631.696 168.91 631.079C165.864 630.604 164.035 624.59 168.09 625.176M538 628C539.638 631 541.217 633.663 542 637C538.447 635.159 536.872 632.487 535 629C536.479 628.014 536.203 628 538 628M574.004 631.752C578.198 630.645 577.605 636.555 574.004 637.079C570.058 637.653 570.961 632.554 574.004 631.752M223 633C222.081 637.001 220.624 639.957 217 642C217.67 638.521 219.071 635.963 221 633L223 633M181.303 635.921C183.989 635.465 186.972 640.2 183.682 641.248C180.394 642.297 177.803 636.516 181.303 635.921M560.87 641.751C565.293 641.599 562.823 647.603 559.133 647.404C554.802 647.17 557.794 641.857 560.87 641.751M512 643C513.228 646.011 514.429 648.792 515 652C511.384 649.947 509.972 647.124 510 643L512 643M195.307 645.881C198.014 645.273 202.058 649.953 198.527 651.292C195.087 652.596 191.398 646.759 195.307 645.881M249 647C249.084 650.782 247.77 653.673 246 657C243.938 653.649 245.807 650.541 247 647L249 647M549 651C548.909 652.149 549.031 653.643 548.397 654.7C544.968 660.415 539.468 653.775 545.898 651.318C546.771 650.984 548.155 651.064 549 651M216 660C214.065 660.718 206.538 661.012 209.175 656.603C211.494 652.728 215.245 658.026 216 660M484 655C485.346 658.5 486.546 661.253 486 665C483.289 661.983 481.552 658.575 484 655M278 659C277.022 662.573 276.124 665.868 273 668C273.276 664.839 274.042 662.021 275 659L278 659M530.87 659.867C535.242 659.867 532.98 665.996 529.133 665.534C524.853 665.02 527.692 659.867 530.87 659.867M225.333 663.711C228.7 662.478 232.719 667.926 228.682 669.03C225.771 669.826 221.586 665.084 225.333 663.711M456 665L458 674C453.977 672.824 453.502 668.831 453 665L456 665M306 667C306.307 670.439 305.458 673.585 305 677C303.203 677 303.479 676.986 302 676L304 667L306 667M515.852 667.998C519.918 668.733 516.654 674.191 513.318 673.252C509.529 672.186 512.849 667.455 515.852 667.998M241.333 671.711C244.182 670.674 248.379 674.895 244.667 676.342C241.691 677.502 237.644 673.055 241.333 671.711M425 671C427.248 673.922 427.538 677.369 428 681C423.823 680.109 423.078 674.335 425 671M336 673C335.923 676.581 335.979 679.732 333 682L333 673L336 673M499.856 674.997C504.161 675.739 500.939 681.338 497.307 680.211C493.531 679.04 496.888 674.486 499.856 674.997M366 675L366 685C362.299 682.573 363.69 678.972 364 675L366 675M395 675C396.731 677.889 396.929 680.661 397 684L394 684C394.002 680.874 393.787 677.89 395 675M258.133 677.997C261.894 677.354 264.276 683.102 259.87 683.454C256.451 683.728 253.983 678.707 258.133 677.997M486 681C485.806 682.219 485.855 683.709 484.972 684.726C480.931 689.384 475.723 683.085 482.859 681.228C483.806 680.982 485.073 681.051 486 681M274.318 683.831C277.548 683.012 280.958 688.194 276.852 689.053C273.737 689.705 270.563 684.784 274.318 683.831M461 688C461.897 687.632 463.119 686.932 464.156 686.794C471.998 685.751 467.367 694.818 462.185 690.556C461.493 689.986 461.279 688.695 461 688M291.162 688.831C294.366 688.087 297.84 692.984 293.757 693.914C290.489 694.659 286.982 689.801 291.162 688.831M453 692C452.685 692.802 452.502 693.977 451.815 694.645C446.824 699.499 442.718 691.402 449.859 691.219C450.927 691.192 452.027 691.723 453 692M314 694C313.719 694.698 313.508 695.984 312.815 696.556C307.666 700.807 303.751 691.734 310.859 692.638C311.917 692.773 313.124 693.587 314 694M430.148 694.661C433.435 693.469 436.288 697.943 432.682 699.339C429.337 700.634 426.178 696.102 430.148 694.661M324 695C324.921 695.203 326.184 695.356 327.101 695.729C334.288 698.654 325.172 703.636 323.478 698.012C323.202 697.093 323.826 695.763 324 695M343.133 697.831C346.534 697.046 348.893 701.807 344.867 702.624C341.261 703.356 339.149 698.75 343.133 697.831M412.333 697.622C415.275 696.257 419.298 699.683 415.667 701.767C412.611 703.522 408.75 699.284 412.333 697.622M379.896 698.662C384.147 698.909 382.717 704.944 379.001 705.11C374.145 705.326 375.407 698.402 379.896 698.662M396.13 698.582C399.554 698.079 401.936 702.78 397.867 703.623C393.988 704.427 391.807 699.217 396.13 698.582M360.307 699.622C363.822 698.018 367.502 702.841 363.671 704.784C360.29 706.499 356.376 701.416 360.307 699.622z"/>
</svg>
